<svg xmlns="http://www.w3.org/2000/svg" width="888" height="158" viewBox="0 0 888 158" font-family="-apple-system,Segoe UI,Helvetica,Arial,sans-serif">
<style>
  text.lbl { fill:#7d8590; font-size:13px; font-weight:600; }
  text.total { fill:#e6edf3; font-size:15px; font-weight:700; }
  .c { transform-box:fill-box; transform-origin:center; opacity:0; animation:pop 0.55s ease-out both; }
  .g { animation:pop 0.55s ease-out both, flash 0.70s ease-out both; }
  @keyframes pop { 0%{opacity:0;transform:scale(.2)} 60%{opacity:1;transform:scale(1.1)} 100%{opacity:1;transform:scale(1)} }
  @keyframes flash { 0%{filter:brightness(2.4)} 45%{filter:brightness(2.4)} 100%{filter:brightness(1)} }
  @media (prefers-reduced-motion: reduce) { .c { opacity:1 !important; animation:none !important; } }
</style>
<rect width="888" height="158" fill="none"/>
<text class="lbl" x="2" y="51">Mon</text><text class="lbl" x="2" y="83">Wed</text><text class="lbl" x="2" y="115">Fri</text>
<text class="lbl" x="34" y="16">Aug</text>
<rect class="c" x="34" y="24" width="13" height="13" rx="2.5" fill="#161b22" style="animation-delay:0.05s"/>
<rect class="c g" x="34" y="40" width="13" height="13" rx="2.5" fill="#0e4429" style="animation-delay:0.05s"/>
<rect class="c g" x="34" y="56" width="13" height="13" rx="2.5" fill="#006d32" style="animation-delay:0.05s"/>
<rect class="c g" x="34" y="72" width="13" height="13" rx="2.5" fill="#006d32" style="animation-delay:0.05s"/>
<rect class="c g" x="34" y="88" width="13" height="13" rx="2.5" fill="#0e4429" style="animation-delay:0.05s"/>
<rect class="c g" x="34" y="104" width="13" height="13" rx="2.5" fill="#006d32" style="animation-delay:0.05s"/>
<rect class="c g" x="34" y="120" width="13" height="13" rx="2.5" fill="#006d32" style="animation-delay:0.05s"/>
<rect class="c" x="50" y="24" width="13" height="13" rx="2.5" fill="#161b22" style="animation-delay:0.10s"/>
<rect class="c g" x="50" y="40" width="13" height="13" rx="2.5" fill="#006d32" style="animation-delay:0.10s"/>
<rect class="c" x="50" y="56" width="13" height="13" rx="2.5" fill="#161b22" style="animation-delay:0.10s"/>
<rect class="c g" x="50" y="72" width="13" height="13" rx="2.5" fill="#26a641" style="animation-delay:0.10s"/>
<rect class="c g" x="50" y="88" width="13" height="13" rx="2.5" fill="#0e4429" style="animation-delay:0.10s"/>
<rect class="c g" x="50" y="104" width="13" height="13" rx="2.5" fill="#0e4429" style="animation-delay:0.10s"/>
<rect class="c" x="50" y="120" width="13" height="13" rx="2.5" fill="#161b22" style="animation-delay:0.10s"/>
<rect class="c" x="66" y="24" width="13" height="13" rx="2.5" fill="#161b22" style="animation-delay:0.15s"/>
<rect class="c g" x="66" y="40" width="13" height="13" rx="2.5" fill="#0e4429" style="animation-delay:0.15s"/>
<rect class="c" x="66" y="56" width="13" height="13" rx="2.5" fill="#161b22" style="animation-delay:0.15s"/>
<rect class="c g" x="66" y="72" width="13" height="13" rx="2.5" fill="#0e4429" style="animation-delay:0.15s"/>
<rect class="c g" x="66" y="88" width="13" height="13" rx="2.5" fill="#0e4429" style="animation-delay:0.15s"/>
<rect class="c g" x="66" y="104" width="13" height="13" rx="2.5" fill="#006d32" style="animation-delay:0.15s"/>
<rect class="c g" x="66" y="120" width="13" height="13" rx="2.5" fill="#006d32" style="animation-delay:0.15s"/>
<rect class="c" x="82" y="24" width="13" height="13" rx="2.5" fill="#161b22" style="animation-delay:0.20s"/>
<text class="lbl" x="82" y="16">Sep</text>
<rect class="c g" x="82" y="40" width="13" height="13" rx="2.5" fill="#26a641" style="animation-delay:0.20s"/>
<rect class="c g" x="82" y="56" width="13" height="13" rx="2.5" fill="#0e4429" style="animation-delay:0.20s"/>
<rect class="c g" x="82" y="72" width="13" height="13" rx="2.5" fill="#0e4429" style="animation-delay:0.20s"/>
<rect class="c g" x="82" y="88" width="13" height="13" rx="2.5" fill="#0e4429" style="animation-delay:0.20s"/>
<rect class="c g" x="82" y="104" width="13" height="13" rx="2.5" fill="#006d32" style="animation-delay:0.20s"/>
<rect class="c" x="82" y="120" width="13" height="13" rx="2.5" fill="#161b22" style="animation-delay:0.20s"/>
<rect class="c g" x="98" y="24" width="13" height="13" rx="2.5" fill="#26a641" style="animation-delay:0.25s"/>
<rect class="c" x="98" y="40" width="13" height="13" rx="2.5" fill="#161b22" style="animation-delay:0.25s"/>
<rect class="c" x="98" y="56" width="13" height="13" rx="2.5" fill="#161b22" style="animation-delay:0.25s"/>
<rect class="c g" x="98" y="72" width="13" height="13" rx="2.5" fill="#0e4429" style="animation-delay:0.25s"/>
<rect class="c g" x="98" y="88" width="13" height="13" rx="2.5" fill="#0e4429" style="animation-delay:0.25s"/>
<rect class="c g" x="98" y="104" width="13" height="13" rx="2.5" fill="#006d32" style="animation-delay:0.25s"/>
<rect class="c g" x="98" y="120" width="13" height="13" rx="2.5" fill="#006d32" style="animation-delay:0.25s"/>
<rect class="c" x="114" y="24" width="13" height="13" rx="2.5" fill="#161b22" style="animation-delay:0.30s"/>
<rect class="c g" x="114" y="40" width="13" height="13" rx="2.5" fill="#0e4429" style="animation-delay:0.30s"/>
<rect class="c g" x="114" y="56" width="13" height="13" rx="2.5" fill="#26a641" style="animation-delay:0.30s"/>
<rect class="c g" x="114" y="72" width="13" height="13" rx="2.5" fill="#0e4429" style="animation-delay:0.30s"/>
<rect class="c g" x="114" y="88" width="13" height="13" rx="2.5" fill="#0e4429" style="animation-delay:0.30s"/>
<rect class="c" x="114" y="104" width="13" height="13" rx="2.5" fill="#161b22" style="animation-delay:0.30s"/>
<rect class="c" x="114" y="120" width="13" height="13" rx="2.5" fill="#161b22" style="animation-delay:0.30s"/>
<rect class="c" x="130" y="24" width="13" height="13" rx="2.5" fill="#161b22" style="animation-delay:0.35s"/>
<rect class="c g" x="130" y="40" width="13" height="13" rx="2.5" fill="#0e4429" style="animation-delay:0.35s"/>
<rect class="c g" x="130" y="56" width="13" height="13" rx="2.5" fill="#0e4429" style="animation-delay:0.35s"/>
<rect class="c g" x="130" y="72" width="13" height="13" rx="2.5" fill="#0e4429" style="animation-delay:0.35s"/>
<rect class="c g" x="130" y="88" width="13" height="13" rx="2.5" fill="#0e4429" style="animation-delay:0.35s"/>
<rect class="c" x="130" y="104" width="13" height="13" rx="2.5" fill="#161b22" style="animation-delay:0.35s"/>
<rect class="c g" x="130" y="120" width="13" height="13" rx="2.5" fill="#0e4429" style="animation-delay:0.35s"/>
<rect class="c" x="146" y="24" width="13" height="13" rx="2.5" fill="#161b22" style="animation-delay:0.40s"/>
<rect class="c g" x="146" y="40" width="13" height="13" rx="2.5" fill="#0e4429" style="animation-delay:0.40s"/>
<rect class="c g" x="146" y="56" width="13" height="13" rx="2.5" fill="#0e4429" style="animation-delay:0.40s"/>
<text class="lbl" x="146" y="16">Oct</text>
<rect class="c g" x="146" y="72" width="13" height="13" rx="2.5" fill="#26a641" style="animation-delay:0.40s"/>
<rect class="c g" x="146" y="88" width="13" height="13" rx="2.5" fill="#006d32" style="animation-delay:0.40s"/>
<rect class="c g" x="146" y="104" width="13" height="13" rx="2.5" fill="#26a641" style="animation-delay:0.40s"/>
<rect class="c g" x="146" y="120" width="13" height="13" rx="2.5" fill="#006d32" style="animation-delay:0.40s"/>
<rect class="c" x="162" y="24" width="13" height="13" rx="2.5" fill="#161b22" style="animation-delay:0.45s"/>
<rect class="c g" x="162" y="40" width="13" height="13" rx="2.5" fill="#26a641" style="animation-delay:0.45s"/>
<rect class="c g" x="162" y="56" width="13" height="13" rx="2.5" fill="#0e4429" style="animation-delay:0.45s"/>
<rect class="c g" x="162" y="72" width="13" height="13" rx="2.5" fill="#0e4429" style="animation-delay:0.45s"/>
<rect class="c g" x="162" y="88" width="13" height="13" rx="2.5" fill="#26a641" style="animation-delay:0.45s"/>
<rect class="c g" x="162" y="104" width="13" height="13" rx="2.5" fill="#0e4429" style="animation-delay:0.45s"/>
<rect class="c" x="162" y="120" width="13" height="13" rx="2.5" fill="#161b22" style="animation-delay:0.45s"/>
<rect class="c g" x="178" y="24" width="13" height="13" rx="2.5" fill="#006d32" style="animation-delay:0.50s"/>
<rect class="c g" x="178" y="40" width="13" height="13" rx="2.5" fill="#0e4429" style="animation-delay:0.50s"/>
<rect class="c g" x="178" y="56" width="13" height="13" rx="2.5" fill="#26a641" style="animation-delay:0.50s"/>
<rect class="c g" x="178" y="72" width="13" height="13" rx="2.5" fill="#26a641" style="animation-delay:0.50s"/>
<rect class="c g" x="178" y="88" width="13" height="13" rx="2.5" fill="#0e4429" style="animation-delay:0.50s"/>
<rect class="c" x="178" y="104" width="13" height="13" rx="2.5" fill="#161b22" style="animation-delay:0.50s"/>
<rect class="c" x="178" y="120" width="13" height="13" rx="2.5" fill="#161b22" style="animation-delay:0.50s"/>
<rect class="c" x="194" y="24" width="13" height="13" rx="2.5" fill="#161b22" style="animation-delay:0.55s"/>
<rect class="c g" x="194" y="40" width="13" height="13" rx="2.5" fill="#26a641" style="animation-delay:0.55s"/>
<rect class="c g" x="194" y="56" width="13" height="13" rx="2.5" fill="#006d32" style="animation-delay:0.55s"/>
<rect class="c g" x="194" y="72" width="13" height="13" rx="2.5" fill="#26a641" style="animation-delay:0.55s"/>
<rect class="c" x="194" y="88" width="13" height="13" rx="2.5" fill="#161b22" style="animation-delay:0.55s"/>
<rect class="c g" x="194" y="104" width="13" height="13" rx="2.5" fill="#0e4429" style="animation-delay:0.55s"/>
<rect class="c" x="194" y="120" width="13" height="13" rx="2.5" fill="#161b22" style="animation-delay:0.55s"/>
<rect class="c" x="210" y="24" width="13" height="13" rx="2.5" fill="#161b22" style="animation-delay:0.60s"/>
<rect class="c g" x="210" y="40" width="13" height="13" rx="2.5" fill="#26a641" style="animation-delay:0.60s"/>
<rect class="c g" x="210" y="56" width="13" height="13" rx="2.5" fill="#006d32" style="animation-delay:0.60s"/>
<rect class="c" x="210" y="72" width="13" height="13" rx="2.5" fill="#161b22" style="animation-delay:0.60s"/>
<rect class="c g" x="210" y="88" width="13" height="13" rx="2.5" fill="#26a641" style="animation-delay:0.60s"/>
<rect class="c g" x="210" y="104" width="13" height="13" rx="2.5" fill="#006d32" style="animation-delay:0.60s"/>
<text class="lbl" x="210" y="16">Nov</text>
<rect class="c" x="210" y="120" width="13" height="13" rx="2.5" fill="#161b22" style="animation-delay:0.60s"/>
<rect class="c" x="226" y="24" width="13" height="13" rx="2.5" fill="#161b22" style="animation-delay:0.65s"/>
<rect class="c g" x="226" y="40" width="13" height="13" rx="2.5" fill="#0e4429" style="animation-delay:0.65s"/>
<rect class="c g" x="226" y="56" width="13" height="13" rx="2.5" fill="#0e4429" style="animation-delay:0.65s"/>
<rect class="c g" x="226" y="72" width="13" height="13" rx="2.5" fill="#0e4429" style="animation-delay:0.65s"/>
<rect class="c g" x="226" y="88" width="13" height="13" rx="2.5" fill="#006d32" style="animation-delay:0.65s"/>
<rect class="c g" x="226" y="104" width="13" height="13" rx="2.5" fill="#26a641" style="animation-delay:0.65s"/>
<rect class="c" x="226" y="120" width="13" height="13" rx="2.5" fill="#161b22" style="animation-delay:0.65s"/>
<rect class="c" x="242" y="24" width="13" height="13" rx="2.5" fill="#161b22" style="animation-delay:0.70s"/>
<rect class="c g" x="242" y="40" width="13" height="13" rx="2.5" fill="#26a641" style="animation-delay:0.70s"/>
<rect class="c g" x="242" y="56" width="13" height="13" rx="2.5" fill="#006d32" style="animation-delay:0.70s"/>
<rect class="c g" x="242" y="72" width="13" height="13" rx="2.5" fill="#0e4429" style="animation-delay:0.70s"/>
<rect class="c g" x="242" y="88" width="13" height="13" rx="2.5" fill="#26a641" style="animation-delay:0.70s"/>
<rect class="c g" x="242" y="104" width="13" height="13" rx="2.5" fill="#0e4429" style="animation-delay:0.70s"/>
<rect class="c" x="242" y="120" width="13" height="13" rx="2.5" fill="#161b22" style="animation-delay:0.70s"/>
<rect class="c" x="258" y="24" width="13" height="13" rx="2.5" fill="#161b22" style="animation-delay:0.75s"/>
<rect class="c" x="258" y="40" width="13" height="13" rx="2.5" fill="#161b22" style="animation-delay:0.75s"/>
<rect class="c g" x="258" y="56" width="13" height="13" rx="2.5" fill="#26a641" style="animation-delay:0.75s"/>
<rect class="c g" x="258" y="72" width="13" height="13" rx="2.5" fill="#0e4429" style="animation-delay:0.75s"/>
<rect class="c g" x="258" y="88" width="13" height="13" rx="2.5" fill="#006d32" style="animation-delay:0.75s"/>
<rect class="c g" x="258" y="104" width="13" height="13" rx="2.5" fill="#0e4429" style="animation-delay:0.75s"/>
<rect class="c" x="258" y="120" width="13" height="13" rx="2.5" fill="#161b22" style="animation-delay:0.75s"/>
<rect class="c g" x="274" y="24" width="13" height="13" rx="2.5" fill="#26a641" style="animation-delay:0.80s"/>
<rect class="c g" x="274" y="40" width="13" height="13" rx="2.5" fill="#26a641" style="animation-delay:0.80s"/>
<rect class="c" x="274" y="56" width="13" height="13" rx="2.5" fill="#161b22" style="animation-delay:0.80s"/>
<rect class="c g" x="274" y="72" width="13" height="13" rx="2.5" fill="#006d32" style="animation-delay:0.80s"/>
<rect class="c g" x="274" y="88" width="13" height="13" rx="2.5" fill="#0e4429" style="animation-delay:0.80s"/>
<rect class="c g" x="274" y="104" width="13" height="13" rx="2.5" fill="#006d32" style="animation-delay:0.80s"/>
<rect class="c" x="274" y="120" width="13" height="13" rx="2.5" fill="#161b22" style="animation-delay:0.80s"/>
<rect class="c g" x="290" y="24" width="13" height="13" rx="2.5" fill="#0e4429" style="animation-delay:0.85s"/>
<text class="lbl" x="290" y="16">Dec</text>
<rect class="c" x="290" y="40" width="13" height="13" rx="2.5" fill="#161b22" style="animation-delay:0.85s"/>
<rect class="c g" x="290" y="56" width="13" height="13" rx="2.5" fill="#006d32" style="animation-delay:0.85s"/>
<rect class="c g" x="290" y="72" width="13" height="13" rx="2.5" fill="#006d32" style="animation-delay:0.85s"/>
<rect class="c" x="290" y="88" width="13" height="13" rx="2.5" fill="#161b22" style="animation-delay:0.85s"/>
<rect class="c g" x="290" y="104" width="13" height="13" rx="2.5" fill="#26a641" style="animation-delay:0.85s"/>
<rect class="c" x="290" y="120" width="13" height="13" rx="2.5" fill="#161b22" style="animation-delay:0.85s"/>
<rect class="c" x="306" y="24" width="13" height="13" rx="2.5" fill="#161b22" style="animation-delay:0.90s"/>
<rect class="c g" x="306" y="40" width="13" height="13" rx="2.5" fill="#0e4429" style="animation-delay:0.90s"/>
<rect class="c g" x="306" y="56" width="13" height="13" rx="2.5" fill="#006d32" style="animation-delay:0.90s"/>
<rect class="c g" x="306" y="72" width="13" height="13" rx="2.5" fill="#006d32" style="animation-delay:0.90s"/>
<rect class="c" x="306" y="88" width="13" height="13" rx="2.5" fill="#161b22" style="animation-delay:0.90s"/>
<rect class="c" x="306" y="104" width="13" height="13" rx="2.5" fill="#161b22" style="animation-delay:0.90s"/>
<rect class="c" x="306" y="120" width="13" height="13" rx="2.5" fill="#161b22" style="animation-delay:0.90s"/>
<rect class="c" x="322" y="24" width="13" height="13" rx="2.5" fill="#161b22" style="animation-delay:0.95s"/>
<rect class="c g" x="322" y="40" width="13" height="13" rx="2.5" fill="#0e4429" style="animation-delay:0.95s"/>
<rect class="c g" x="322" y="56" width="13" height="13" rx="2.5" fill="#26a641" style="animation-delay:0.95s"/>
<rect class="c g" x="322" y="72" width="13" height="13" rx="2.5" fill="#0e4429" style="animation-delay:0.95s"/>
<rect class="c g" x="322" y="88" width="13" height="13" rx="2.5" fill="#0e4429" style="animation-delay:0.95s"/>
<rect class="c" x="322" y="104" width="13" height="13" rx="2.5" fill="#161b22" style="animation-delay:0.95s"/>
<rect class="c" x="322" y="120" width="13" height="13" rx="2.5" fill="#161b22" style="animation-delay:0.95s"/>
<rect class="c" x="338" y="24" width="13" height="13" rx="2.5" fill="#161b22" style="animation-delay:1.00s"/>
<rect class="c g" x="338" y="40" width="13" height="13" rx="2.5" fill="#0e4429" style="animation-delay:1.00s"/>
<rect class="c g" x="338" y="56" width="13" height="13" rx="2.5" fill="#0e4429" style="animation-delay:1.00s"/>
<rect class="c" x="338" y="72" width="13" height="13" rx="2.5" fill="#161b22" style="animation-delay:1.00s"/>
<rect class="c" x="338" y="88" width="13" height="13" rx="2.5" fill="#161b22" style="animation-delay:1.00s"/>
<rect class="c g" x="338" y="104" width="13" height="13" rx="2.5" fill="#006d32" style="animation-delay:1.00s"/>
<rect class="c" x="338" y="120" width="13" height="13" rx="2.5" fill="#161b22" style="animation-delay:1.00s"/>
<rect class="c" x="354" y="24" width="13" height="13" rx="2.5" fill="#161b22" style="animation-delay:1.05s"/>
<rect class="c g" x="354" y="40" width="13" height="13" rx="2.5" fill="#26a641" style="animation-delay:1.05s"/>
<rect class="c g" x="354" y="56" width="13" height="13" rx="2.5" fill="#006d32" style="animation-delay:1.05s"/>
<rect class="c g" x="354" y="72" width="13" height="13" rx="2.5" fill="#0e4429" style="animation-delay:1.05s"/>
<text class="lbl" x="354" y="16">Jan</text>
<rect class="c g" x="354" y="88" width="13" height="13" rx="2.5" fill="#26a641" style="animation-delay:1.05s"/>
<rect class="c g" x="354" y="104" width="13" height="13" rx="2.5" fill="#0e4429" style="animation-delay:1.05s"/>
<rect class="c" x="354" y="120" width="13" height="13" rx="2.5" fill="#161b22" style="animation-delay:1.05s"/>
<rect class="c" x="370" y="24" width="13" height="13" rx="2.5" fill="#161b22" style="animation-delay:1.10s"/>
<rect class="c g" x="370" y="40" width="13" height="13" rx="2.5" fill="#0e4429" style="animation-delay:1.10s"/>
<rect class="c g" x="370" y="56" width="13" height="13" rx="2.5" fill="#006d32" style="animation-delay:1.10s"/>
<rect class="c g" x="370" y="72" width="13" height="13" rx="2.5" fill="#006d32" style="animation-delay:1.10s"/>
<rect class="c g" x="370" y="88" width="13" height="13" rx="2.5" fill="#0e4429" style="animation-delay:1.10s"/>
<rect class="c g" x="370" y="104" width="13" height="13" rx="2.5" fill="#006d32" style="animation-delay:1.10s"/>
<rect class="c" x="370" y="120" width="13" height="13" rx="2.5" fill="#161b22" style="animation-delay:1.10s"/>
<rect class="c" x="386" y="24" width="13" height="13" rx="2.5" fill="#161b22" style="animation-delay:1.15s"/>
<rect class="c" x="386" y="40" width="13" height="13" rx="2.5" fill="#161b22" style="animation-delay:1.15s"/>
<rect class="c g" x="386" y="56" width="13" height="13" rx="2.5" fill="#006d32" style="animation-delay:1.15s"/>
<rect class="c g" x="386" y="72" width="13" height="13" rx="2.5" fill="#006d32" style="animation-delay:1.15s"/>
<rect class="c g" x="386" y="88" width="13" height="13" rx="2.5" fill="#0e4429" style="animation-delay:1.15s"/>
<rect class="c g" x="386" y="104" width="13" height="13" rx="2.5" fill="#0e4429" style="animation-delay:1.15s"/>
<rect class="c" x="386" y="120" width="13" height="13" rx="2.5" fill="#161b22" style="animation-delay:1.15s"/>
<rect class="c g" x="402" y="24" width="13" height="13" rx="2.5" fill="#006d32" style="animation-delay:1.20s"/>
<rect class="c g" x="402" y="40" width="13" height="13" rx="2.5" fill="#0e4429" style="animation-delay:1.20s"/>
<rect class="c g" x="402" y="56" width="13" height="13" rx="2.5" fill="#0e4429" style="animation-delay:1.20s"/>
<rect class="c g" x="402" y="72" width="13" height="13" rx="2.5" fill="#006d32" style="animation-delay:1.20s"/>
<rect class="c g" x="402" y="88" width="13" height="13" rx="2.5" fill="#0e4429" style="animation-delay:1.20s"/>
<rect class="c g" x="402" y="104" width="13" height="13" rx="2.5" fill="#0e4429" style="animation-delay:1.20s"/>
<rect class="c" x="402" y="120" width="13" height="13" rx="2.5" fill="#161b22" style="animation-delay:1.20s"/>
<rect class="c" x="418" y="24" width="13" height="13" rx="2.5" fill="#161b22" style="animation-delay:1.25s"/>
<rect class="c g" x="418" y="40" width="13" height="13" rx="2.5" fill="#006d32" style="animation-delay:1.25s"/>
<rect class="c g" x="418" y="56" width="13" height="13" rx="2.5" fill="#26a641" style="animation-delay:1.25s"/>
<rect class="c g" x="418" y="72" width="13" height="13" rx="2.5" fill="#006d32" style="animation-delay:1.25s"/>
<rect class="c g" x="418" y="88" width="13" height="13" rx="2.5" fill="#0e4429" style="animation-delay:1.25s"/>
<rect class="c g" x="418" y="104" width="13" height="13" rx="2.5" fill="#006d32" style="animation-delay:1.25s"/>
<rect class="c" x="418" y="120" width="13" height="13" rx="2.5" fill="#161b22" style="animation-delay:1.25s"/>
<text class="lbl" x="434" y="16">Feb</text>
<rect class="c" x="434" y="24" width="13" height="13" rx="2.5" fill="#161b22" style="animation-delay:1.30s"/>
<rect class="c" x="434" y="40" width="13" height="13" rx="2.5" fill="#161b22" style="animation-delay:1.30s"/>
<rect class="c g" x="434" y="56" width="13" height="13" rx="2.5" fill="#26a641" style="animation-delay:1.30s"/>
<rect class="c g" x="434" y="72" width="13" height="13" rx="2.5" fill="#0e4429" style="animation-delay:1.30s"/>
<rect class="c g" x="434" y="88" width="13" height="13" rx="2.5" fill="#0e4429" style="animation-delay:1.30s"/>
<rect class="c g" x="434" y="104" width="13" height="13" rx="2.5" fill="#26a641" style="animation-delay:1.30s"/>
<rect class="c g" x="434" y="120" width="13" height="13" rx="2.5" fill="#006d32" style="animation-delay:1.30s"/>
<rect class="c" x="450" y="24" width="13" height="13" rx="2.5" fill="#161b22" style="animation-delay:1.35s"/>
<rect class="c g" x="450" y="40" width="13" height="13" rx="2.5" fill="#006d32" style="animation-delay:1.35s"/>
<rect class="c g" x="450" y="56" width="13" height="13" rx="2.5" fill="#26a641" style="animation-delay:1.35s"/>
<rect class="c g" x="450" y="72" width="13" height="13" rx="2.5" fill="#006d32" style="animation-delay:1.35s"/>
<rect class="c g" x="450" y="88" width="13" height="13" rx="2.5" fill="#0e4429" style="animation-delay:1.35s"/>
<rect class="c g" x="450" y="104" width="13" height="13" rx="2.5" fill="#26a641" style="animation-delay:1.35s"/>
<rect class="c" x="450" y="120" width="13" height="13" rx="2.5" fill="#161b22" style="animation-delay:1.35s"/>
<rect class="c" x="466" y="24" width="13" height="13" rx="2.5" fill="#161b22" style="animation-delay:1.40s"/>
<rect class="c g" x="466" y="40" width="13" height="13" rx="2.5" fill="#006d32" style="animation-delay:1.40s"/>
<rect class="c g" x="466" y="56" width="13" height="13" rx="2.5" fill="#0e4429" style="animation-delay:1.40s"/>
<rect class="c g" x="466" y="72" width="13" height="13" rx="2.5" fill="#006d32" style="animation-delay:1.40s"/>
<rect class="c g" x="466" y="88" width="13" height="13" rx="2.5" fill="#0e4429" style="animation-delay:1.40s"/>
<rect class="c g" x="466" y="104" width="13" height="13" rx="2.5" fill="#26a641" style="animation-delay:1.40s"/>
<rect class="c" x="466" y="120" width="13" height="13" rx="2.5" fill="#161b22" style="animation-delay:1.40s"/>
<rect class="c" x="482" y="24" width="13" height="13" rx="2.5" fill="#161b22" style="animation-delay:1.45s"/>
<rect class="c g" x="482" y="40" width="13" height="13" rx="2.5" fill="#006d32" style="animation-delay:1.45s"/>
<rect class="c" x="482" y="56" width="13" height="13" rx="2.5" fill="#161b22" style="animation-delay:1.45s"/>
<rect class="c g" x="482" y="72" width="13" height="13" rx="2.5" fill="#26a641" style="animation-delay:1.45s"/>
<rect class="c g" x="482" y="88" width="13" height="13" rx="2.5" fill="#26a641" style="animation-delay:1.45s"/>
<rect class="c g" x="482" y="104" width="13" height="13" rx="2.5" fill="#006d32" style="animation-delay:1.45s"/>
<rect class="c" x="482" y="120" width="13" height="13" rx="2.5" fill="#161b22" style="animation-delay:1.45s"/>
<text class="lbl" x="498" y="16">Mar</text>
<rect class="c" x="498" y="24" width="13" height="13" rx="2.5" fill="#161b22" style="animation-delay:1.50s"/>
<rect class="c g" x="498" y="40" width="13" height="13" rx="2.5" fill="#26a641" style="animation-delay:1.50s"/>
<rect class="c g" x="498" y="56" width="13" height="13" rx="2.5" fill="#0e4429" style="animation-delay:1.50s"/>
<rect class="c" x="498" y="72" width="13" height="13" rx="2.5" fill="#161b22" style="animation-delay:1.50s"/>
<rect class="c" x="498" y="88" width="13" height="13" rx="2.5" fill="#161b22" style="animation-delay:1.50s"/>
<rect class="c g" x="498" y="104" width="13" height="13" rx="2.5" fill="#0e4429" style="animation-delay:1.50s"/>
<rect class="c" x="498" y="120" width="13" height="13" rx="2.5" fill="#161b22" style="animation-delay:1.50s"/>
<rect class="c" x="514" y="24" width="13" height="13" rx="2.5" fill="#161b22" style="animation-delay:1.55s"/>
<rect class="c g" x="514" y="40" width="13" height="13" rx="2.5" fill="#006d32" style="animation-delay:1.55s"/>
<rect class="c g" x="514" y="56" width="13" height="13" rx="2.5" fill="#26a641" style="animation-delay:1.55s"/>
<rect class="c g" x="514" y="72" width="13" height="13" rx="2.5" fill="#0e4429" style="animation-delay:1.55s"/>
<rect class="c g" x="514" y="88" width="13" height="13" rx="2.5" fill="#0e4429" style="animation-delay:1.55s"/>
<rect class="c g" x="514" y="104" width="13" height="13" rx="2.5" fill="#006d32" style="animation-delay:1.55s"/>
<rect class="c" x="514" y="120" width="13" height="13" rx="2.5" fill="#161b22" style="animation-delay:1.55s"/>
<rect class="c" x="530" y="24" width="13" height="13" rx="2.5" fill="#161b22" style="animation-delay:1.60s"/>
<rect class="c g" x="530" y="40" width="13" height="13" rx="2.5" fill="#0e4429" style="animation-delay:1.60s"/>
<rect class="c" x="530" y="56" width="13" height="13" rx="2.5" fill="#161b22" style="animation-delay:1.60s"/>
<rect class="c g" x="530" y="72" width="13" height="13" rx="2.5" fill="#0e4429" style="animation-delay:1.60s"/>
<rect class="c" x="530" y="88" width="13" height="13" rx="2.5" fill="#161b22" style="animation-delay:1.60s"/>
<rect class="c g" x="530" y="104" width="13" height="13" rx="2.5" fill="#0e4429" style="animation-delay:1.60s"/>
<rect class="c" x="530" y="120" width="13" height="13" rx="2.5" fill="#161b22" style="animation-delay:1.60s"/>
<rect class="c" x="546" y="24" width="13" height="13" rx="2.5" fill="#161b22" style="animation-delay:1.65s"/>
<rect class="c g" x="546" y="40" width="13" height="13" rx="2.5" fill="#0e4429" style="animation-delay:1.65s"/>
<rect class="c g" x="546" y="56" width="13" height="13" rx="2.5" fill="#006d32" style="animation-delay:1.65s"/>
<rect class="c g" x="546" y="72" width="13" height="13" rx="2.5" fill="#26a641" style="animation-delay:1.65s"/>
<rect class="c g" x="546" y="88" width="13" height="13" rx="2.5" fill="#006d32" style="animation-delay:1.65s"/>
<rect class="c g" x="546" y="104" width="13" height="13" rx="2.5" fill="#0e4429" style="animation-delay:1.65s"/>
<rect class="c" x="546" y="120" width="13" height="13" rx="2.5" fill="#161b22" style="animation-delay:1.65s"/>
<rect class="c" x="562" y="24" width="13" height="13" rx="2.5" fill="#161b22" style="animation-delay:1.70s"/>
<rect class="c g" x="562" y="40" width="13" height="13" rx="2.5" fill="#0e4429" style="animation-delay:1.70s"/>
<rect class="c g" x="562" y="56" width="13" height="13" rx="2.5" fill="#26a641" style="animation-delay:1.70s"/>
<text class="lbl" x="562" y="16">Apr</text>
<rect class="c" x="562" y="72" width="13" height="13" rx="2.5" fill="#161b22" style="animation-delay:1.70s"/>
<rect class="c g" x="562" y="88" width="13" height="13" rx="2.5" fill="#26a641" style="animation-delay:1.70s"/>
<rect class="c" x="562" y="104" width="13" height="13" rx="2.5" fill="#161b22" style="animation-delay:1.70s"/>
<rect class="c" x="562" y="120" width="13" height="13" rx="2.5" fill="#161b22" style="animation-delay:1.70s"/>
<rect class="c" x="578" y="24" width="13" height="13" rx="2.5" fill="#161b22" style="animation-delay:1.75s"/>
<rect class="c g" x="578" y="40" width="13" height="13" rx="2.5" fill="#26a641" style="animation-delay:1.75s"/>
<rect class="c g" x="578" y="56" width="13" height="13" rx="2.5" fill="#26a641" style="animation-delay:1.75s"/>
<rect class="c g" x="578" y="72" width="13" height="13" rx="2.5" fill="#006d32" style="animation-delay:1.75s"/>
<rect class="c g" x="578" y="88" width="13" height="13" rx="2.5" fill="#0e4429" style="animation-delay:1.75s"/>
<rect class="c g" x="578" y="104" width="13" height="13" rx="2.5" fill="#0e4429" style="animation-delay:1.75s"/>
<rect class="c" x="578" y="120" width="13" height="13" rx="2.5" fill="#161b22" style="animation-delay:1.75s"/>
<rect class="c" x="594" y="24" width="13" height="13" rx="2.5" fill="#161b22" style="animation-delay:1.80s"/>
<rect class="c" x="594" y="40" width="13" height="13" rx="2.5" fill="#161b22" style="animation-delay:1.80s"/>
<rect class="c g" x="594" y="56" width="13" height="13" rx="2.5" fill="#0e4429" style="animation-delay:1.80s"/>
<rect class="c g" x="594" y="72" width="13" height="13" rx="2.5" fill="#26a641" style="animation-delay:1.80s"/>
<rect class="c" x="594" y="88" width="13" height="13" rx="2.5" fill="#161b22" style="animation-delay:1.80s"/>
<rect class="c g" x="594" y="104" width="13" height="13" rx="2.5" fill="#006d32" style="animation-delay:1.80s"/>
<rect class="c" x="594" y="120" width="13" height="13" rx="2.5" fill="#161b22" style="animation-delay:1.80s"/>
<rect class="c g" x="610" y="24" width="13" height="13" rx="2.5" fill="#26a641" style="animation-delay:1.85s"/>
<rect class="c" x="610" y="40" width="13" height="13" rx="2.5" fill="#161b22" style="animation-delay:1.85s"/>
<rect class="c g" x="610" y="56" width="13" height="13" rx="2.5" fill="#006d32" style="animation-delay:1.85s"/>
<rect class="c g" x="610" y="72" width="13" height="13" rx="2.5" fill="#0e4429" style="animation-delay:1.85s"/>
<rect class="c g" x="610" y="88" width="13" height="13" rx="2.5" fill="#26a641" style="animation-delay:1.85s"/>
<rect class="c g" x="610" y="104" width="13" height="13" rx="2.5" fill="#0e4429" style="animation-delay:1.85s"/>
<rect class="c" x="610" y="120" width="13" height="13" rx="2.5" fill="#161b22" style="animation-delay:1.85s"/>
<rect class="c" x="626" y="24" width="13" height="13" rx="2.5" fill="#161b22" style="animation-delay:1.90s"/>
<rect class="c g" x="626" y="40" width="13" height="13" rx="2.5" fill="#26a641" style="animation-delay:1.90s"/>
<rect class="c g" x="626" y="56" width="13" height="13" rx="2.5" fill="#0e4429" style="animation-delay:1.90s"/>
<rect class="c g" x="626" y="72" width="13" height="13" rx="2.5" fill="#0e4429" style="animation-delay:1.90s"/>
<rect class="c g" x="626" y="88" width="13" height="13" rx="2.5" fill="#0e4429" style="animation-delay:1.90s"/>
<text class="lbl" x="626" y="16">May</text>
<rect class="c g" x="626" y="104" width="13" height="13" rx="2.5" fill="#0e4429" style="animation-delay:1.90s"/>
<rect class="c g" x="626" y="120" width="13" height="13" rx="2.5" fill="#006d32" style="animation-delay:1.90s"/>
<rect class="c" x="642" y="24" width="13" height="13" rx="2.5" fill="#161b22" style="animation-delay:1.95s"/>
<rect class="c" x="642" y="40" width="13" height="13" rx="2.5" fill="#161b22" style="animation-delay:1.95s"/>
<rect class="c g" x="642" y="56" width="13" height="13" rx="2.5" fill="#006d32" style="animation-delay:1.95s"/>
<rect class="c" x="642" y="72" width="13" height="13" rx="2.5" fill="#161b22" style="animation-delay:1.95s"/>
<rect class="c g" x="642" y="88" width="13" height="13" rx="2.5" fill="#0e4429" style="animation-delay:1.95s"/>
<rect class="c g" x="642" y="104" width="13" height="13" rx="2.5" fill="#006d32" style="animation-delay:1.95s"/>
<rect class="c" x="642" y="120" width="13" height="13" rx="2.5" fill="#161b22" style="animation-delay:1.95s"/>
<rect class="c" x="658" y="24" width="13" height="13" rx="2.5" fill="#161b22" style="animation-delay:2.00s"/>
<rect class="c g" x="658" y="40" width="13" height="13" rx="2.5" fill="#0e4429" style="animation-delay:2.00s"/>
<rect class="c" x="658" y="56" width="13" height="13" rx="2.5" fill="#161b22" style="animation-delay:2.00s"/>
<rect class="c" x="658" y="72" width="13" height="13" rx="2.5" fill="#161b22" style="animation-delay:2.00s"/>
<rect class="c g" x="658" y="88" width="13" height="13" rx="2.5" fill="#26a641" style="animation-delay:2.00s"/>
<rect class="c g" x="658" y="104" width="13" height="13" rx="2.5" fill="#0e4429" style="animation-delay:2.00s"/>
<rect class="c" x="658" y="120" width="13" height="13" rx="2.5" fill="#161b22" style="animation-delay:2.00s"/>
<rect class="c" x="674" y="24" width="13" height="13" rx="2.5" fill="#161b22" style="animation-delay:2.05s"/>
<rect class="c g" x="674" y="40" width="13" height="13" rx="2.5" fill="#006d32" style="animation-delay:2.05s"/>
<rect class="c" x="674" y="56" width="13" height="13" rx="2.5" fill="#161b22" style="animation-delay:2.05s"/>
<rect class="c g" x="674" y="72" width="13" height="13" rx="2.5" fill="#0e4429" style="animation-delay:2.05s"/>
<rect class="c g" x="674" y="88" width="13" height="13" rx="2.5" fill="#006d32" style="animation-delay:2.05s"/>
<rect class="c" x="674" y="104" width="13" height="13" rx="2.5" fill="#161b22" style="animation-delay:2.05s"/>
<rect class="c g" x="674" y="120" width="13" height="13" rx="2.5" fill="#0e4429" style="animation-delay:2.05s"/>
<rect class="c" x="690" y="24" width="13" height="13" rx="2.5" fill="#161b22" style="animation-delay:2.10s"/>
<rect class="c g" x="690" y="40" width="13" height="13" rx="2.5" fill="#26a641" style="animation-delay:2.10s"/>
<rect class="c g" x="690" y="56" width="13" height="13" rx="2.5" fill="#26a641" style="animation-delay:2.10s"/>
<rect class="c g" x="690" y="72" width="13" height="13" rx="2.5" fill="#006d32" style="animation-delay:2.10s"/>
<rect class="c g" x="690" y="88" width="13" height="13" rx="2.5" fill="#39d353" style="animation-delay:2.10s"/>
<rect class="c g" x="690" y="104" width="13" height="13" rx="2.5" fill="#39d353" style="animation-delay:2.10s"/>
<rect class="c g" x="690" y="120" width="13" height="13" rx="2.5" fill="#39d353" style="animation-delay:2.10s"/>
<rect class="c g" x="706" y="24" width="13" height="13" rx="2.5" fill="#006d32" style="animation-delay:2.15s"/>
<text class="lbl" x="706" y="16">Jun</text>
<rect class="c g" x="706" y="40" width="13" height="13" rx="2.5" fill="#39d353" style="animation-delay:2.15s"/>
<rect class="c g" x="706" y="56" width="13" height="13" rx="2.5" fill="#26a641" style="animation-delay:2.15s"/>
<rect class="c" x="706" y="72" width="13" height="13" rx="2.5" fill="#161b22" style="animation-delay:2.15s"/>
<rect class="c g" x="706" y="88" width="13" height="13" rx="2.5" fill="#0e4429" style="animation-delay:2.15s"/>
<rect class="c" x="706" y="104" width="13" height="13" rx="2.5" fill="#161b22" style="animation-delay:2.15s"/>
<rect class="c" x="706" y="120" width="13" height="13" rx="2.5" fill="#161b22" style="animation-delay:2.15s"/>
<rect class="c" x="722" y="24" width="13" height="13" rx="2.5" fill="#161b22" style="animation-delay:2.20s"/>
<rect class="c" x="722" y="40" width="13" height="13" rx="2.5" fill="#161b22" style="animation-delay:2.20s"/>
<rect class="c" x="722" y="56" width="13" height="13" rx="2.5" fill="#161b22" style="animation-delay:2.20s"/>
<rect class="c g" x="722" y="72" width="13" height="13" rx="2.5" fill="#39d353" style="animation-delay:2.20s"/>
<rect class="c" x="722" y="88" width="13" height="13" rx="2.5" fill="#161b22" style="animation-delay:2.20s"/>
<rect class="c" x="722" y="104" width="13" height="13" rx="2.5" fill="#161b22" style="animation-delay:2.20s"/>
<rect class="c" x="722" y="120" width="13" height="13" rx="2.5" fill="#161b22" style="animation-delay:2.20s"/>
<rect class="c" x="738" y="24" width="13" height="13" rx="2.5" fill="#161b22" style="animation-delay:2.25s"/>
<rect class="c" x="738" y="40" width="13" height="13" rx="2.5" fill="#161b22" style="animation-delay:2.25s"/>
<rect class="c" x="738" y="56" width="13" height="13" rx="2.5" fill="#161b22" style="animation-delay:2.25s"/>
<rect class="c" x="738" y="72" width="13" height="13" rx="2.5" fill="#161b22" style="animation-delay:2.25s"/>
<rect class="c" x="738" y="88" width="13" height="13" rx="2.5" fill="#161b22" style="animation-delay:2.25s"/>
<rect class="c" x="738" y="104" width="13" height="13" rx="2.5" fill="#161b22" style="animation-delay:2.25s"/>
<rect class="c" x="738" y="120" width="13" height="13" rx="2.5" fill="#161b22" style="animation-delay:2.25s"/>
<rect class="c" x="754" y="24" width="13" height="13" rx="2.5" fill="#161b22" style="animation-delay:2.30s"/>
<rect class="c" x="754" y="40" width="13" height="13" rx="2.5" fill="#161b22" style="animation-delay:2.30s"/>
<rect class="c" x="754" y="56" width="13" height="13" rx="2.5" fill="#161b22" style="animation-delay:2.30s"/>
<rect class="c g" x="754" y="72" width="13" height="13" rx="2.5" fill="#0e4429" style="animation-delay:2.30s"/>
<rect class="c g" x="754" y="88" width="13" height="13" rx="2.5" fill="#006d32" style="animation-delay:2.30s"/>
<rect class="c g" x="754" y="104" width="13" height="13" rx="2.5" fill="#0e4429" style="animation-delay:2.30s"/>
<rect class="c" x="754" y="120" width="13" height="13" rx="2.5" fill="#161b22" style="animation-delay:2.30s"/>
<rect class="c" x="770" y="24" width="13" height="13" rx="2.5" fill="#161b22" style="animation-delay:2.35s"/>
<rect class="c" x="770" y="40" width="13" height="13" rx="2.5" fill="#161b22" style="animation-delay:2.35s"/>
<rect class="c g" x="770" y="56" width="13" height="13" rx="2.5" fill="#0e4429" style="animation-delay:2.35s"/>
<text class="lbl" x="770" y="16">Jul</text>
<rect class="c g" x="770" y="72" width="13" height="13" rx="2.5" fill="#0e4429" style="animation-delay:2.35s"/>
<rect class="c" x="770" y="88" width="13" height="13" rx="2.5" fill="#161b22" style="animation-delay:2.35s"/>
<rect class="c g" x="770" y="104" width="13" height="13" rx="2.5" fill="#0e4429" style="animation-delay:2.35s"/>
<rect class="c" x="770" y="120" width="13" height="13" rx="2.5" fill="#161b22" style="animation-delay:2.35s"/>
<rect class="c g" x="786" y="24" width="13" height="13" rx="2.5" fill="#0e4429" style="animation-delay:2.40s"/>
<rect class="c" x="786" y="40" width="13" height="13" rx="2.5" fill="#161b22" style="animation-delay:2.40s"/>
<rect class="c g" x="786" y="56" width="13" height="13" rx="2.5" fill="#0e4429" style="animation-delay:2.40s"/>
<rect class="c" x="786" y="72" width="13" height="13" rx="2.5" fill="#161b22" style="animation-delay:2.40s"/>
<rect class="c" x="786" y="88" width="13" height="13" rx="2.5" fill="#161b22" style="animation-delay:2.40s"/>
<rect class="c" x="786" y="104" width="13" height="13" rx="2.5" fill="#161b22" style="animation-delay:2.40s"/>
<rect class="c" x="786" y="120" width="13" height="13" rx="2.5" fill="#161b22" style="animation-delay:2.40s"/>
<rect class="c" x="802" y="24" width="13" height="13" rx="2.5" fill="#161b22" style="animation-delay:2.45s"/>
<rect class="c g" x="802" y="40" width="13" height="13" rx="2.5" fill="#39d353" style="animation-delay:2.45s"/>
<rect class="c g" x="802" y="56" width="13" height="13" rx="2.5" fill="#39d353" style="animation-delay:2.45s"/>
<rect class="c g" x="802" y="72" width="13" height="13" rx="2.5" fill="#26a641" style="animation-delay:2.45s"/>
<rect class="c g" x="802" y="88" width="13" height="13" rx="2.5" fill="#0e4429" style="animation-delay:2.45s"/>
<rect class="c g" x="802" y="104" width="13" height="13" rx="2.5" fill="#0e4429" style="animation-delay:2.45s"/>
<rect class="c g" x="802" y="120" width="13" height="13" rx="2.5" fill="#26a641" style="animation-delay:2.45s"/>
<rect class="c g" x="818" y="24" width="13" height="13" rx="2.5" fill="#26a641" style="animation-delay:2.50s"/>
<rect class="c g" x="818" y="40" width="13" height="13" rx="2.5" fill="#0e4429" style="animation-delay:2.50s"/>
<rect class="c g" x="818" y="56" width="13" height="13" rx="2.5" fill="#39d353" style="animation-delay:2.50s"/>
<rect class="c g" x="818" y="72" width="13" height="13" rx="2.5" fill="#39d353" style="animation-delay:2.50s"/>
<rect class="c g" x="818" y="88" width="13" height="13" rx="2.5" fill="#0e4429" style="animation-delay:2.50s"/>
<rect class="c g" x="818" y="104" width="13" height="13" rx="2.5" fill="#0e4429" style="animation-delay:2.50s"/>
<rect class="c g" x="818" y="120" width="13" height="13" rx="2.5" fill="#0e4429" style="animation-delay:2.50s"/>
<rect class="c g" x="834" y="24" width="13" height="13" rx="2.5" fill="#0e4429" style="animation-delay:2.55s"/>
<rect class="c g" x="834" y="40" width="13" height="13" rx="2.5" fill="#0e4429" style="animation-delay:2.55s"/>
<rect class="c g" x="834" y="56" width="13" height="13" rx="2.5" fill="#0e4429" style="animation-delay:2.55s"/>
<rect class="c g" x="834" y="72" width="13" height="13" rx="2.5" fill="#26a641" style="animation-delay:2.55s"/>
<rect class="c g" x="834" y="88" width="13" height="13" rx="2.5" fill="#0e4429" style="animation-delay:2.55s"/>
<rect class="c g" x="834" y="104" width="13" height="13" rx="2.5" fill="#0e4429" style="animation-delay:2.55s"/>
<rect class="c g" x="834" y="120" width="13" height="13" rx="2.5" fill="#006d32" style="animation-delay:2.55s"/>
<rect class="c g" x="850" y="24" width="13" height="13" rx="2.5" fill="#0e4429" style="animation-delay:2.60s"/>
<rect class="c g" x="850" y="40" width="13" height="13" rx="2.5" fill="#0e4429" style="animation-delay:2.60s"/>
<rect class="c g" x="850" y="56" width="13" height="13" rx="2.5" fill="#0e4429" style="animation-delay:2.60s"/>
<rect class="c g" x="850" y="72" width="13" height="13" rx="2.5" fill="#0e4429" style="animation-delay:2.60s"/>
<rect class="c g" x="850" y="88" width="13" height="13" rx="2.5" fill="#0e4429" style="animation-delay:2.60s"/>
<rect class="c g" x="850" y="104" width="13" height="13" rx="2.5" fill="#0e4429" style="animation-delay:2.60s"/>
<rect class="c g" x="850" y="120" width="13" height="13" rx="2.5" fill="#0e4429" style="animation-delay:2.60s"/>
<rect class="c g" x="866" y="24" width="13" height="13" rx="2.5" fill="#0e4429" style="animation-delay:2.65s"/>
<rect class="c g" x="866" y="40" width="13" height="13" rx="2.5" fill="#0e4429" style="animation-delay:2.65s"/>
<rect class="c g" x="866" y="56" width="13" height="13" rx="2.5" fill="#0e4429" style="animation-delay:2.65s"/>
<rect class="c g" x="866" y="72" width="13" height="13" rx="2.5" fill="#0e4429" style="animation-delay:2.65s"/>
<rect class="c" x="866" y="88" width="13" height="13" rx="2.5" fill="#161b22" style="animation-delay:2.65s"/>
<text class="total" x="34" y="152">924 contributions in the last year</text>
</svg>